<?xml version="1.0" standalone="no"?>
<!DOCTYPE svg PUBLIC "-//W3C//DTD SVG 20010904//EN"
 "http://www.w3.org/TR/2001/REC-SVG-20010904/DTD/svg10.dtd">
<svg version="1.0" xmlns="http://www.w3.org/2000/svg"
 width="640.000000pt" height="599.000000pt" viewBox="0 0 640.000000 599.000000"
 preserveAspectRatio="xMidYMid meet">

<g transform="translate(0.000000,599.000000) scale(0.100000,-0.100000)"
fill="#000000" stroke="none">
<path d="M3042 5964 c-379 -102 -571 -526 -397 -880 74 -152 214 -272 370
-319 l40 -12 3 -324 2 -324 -55 -29 c-111 -58 -280 -208 -331 -295 l-19 -31
-295 295 -296 296 28 57 c47 95 61 172 56 297 -8 177 -62 301 -186 422 -69 69
-184 132 -287 158 -75 19 -212 19 -293 0 -220 -52 -399 -228 -457 -450 -21
-80 -21 -236 0 -317 36 -138 141 -283 263 -364 171 -114 412 -131 602 -43 l71
32 222 -221 222 -221 -40 -11 c-208 -62 -408 -273 -467 -492 l-12 -48 -171 0
-172 0 -12 43 c-44 148 -170 296 -314 367 -114 57 -242 79 -355 63 -153 -23
-263 -76 -366 -179 -72 -72 -118 -146 -153 -246 -34 -95 -38 -268 -9 -362 63
-211 217 -367 424 -432 75 -24 225 -29 311 -10 205 43 385 202 453 399 l23 67
162 0 163 0 0 -23 c0 -45 40 -180 75 -252 68 -142 190 -268 323 -333 l52 -26
-181 -182 -181 -181 -57 28 c-83 41 -167 59 -273 59 -178 0 -316 -56 -439
-180 -123 -123 -181 -264 -181 -440 0 -112 14 -174 64 -279 75 -157 229 -282
403 -326 76 -19 234 -19 310 0 147 37 277 130 363 259 70 105 93 177 99 311 6
128 -10 212 -56 303 l-30 59 262 261 262 262 238 0 237 0 0 -469 0 -468 -32
-7 c-129 -26 -313 -177 -381 -313 -126 -255 -70 -562 135 -748 337 -304 875
-162 1014 269 21 64 27 102 28 181 1 120 -13 183 -65 292 -68 143 -216 269
-366 314 l-43 12 0 467 0 468 44 11 c125 31 144 199 31 264 -14 9 -172 13
-540 17 l-520 5 -60 29 c-231 114 -325 437 -200 692 37 76 113 155 187 195 58
32 70 34 153 34 80 0 97 -3 150 -30 73 -37 117 -91 144 -181 29 -91 37 -103
88 -126 86 -38 182 8 199 96 14 76 -39 221 -117 323 -39 50 -40 52 -25 80 31
58 106 141 172 191 204 153 445 157 651 13 173 -121 279 -320 302 -561 13
-137 35 -167 135 -190 91 -20 148 -67 188 -155 31 -67 32 -189 1 -256 -27 -61
-75 -113 -127 -138 -37 -18 -61 -21 -193 -21 -140 0 -152 -2 -184 -23 -69 -46
-99 -130 -68 -190 6 -12 140 -151 297 -309 l286 -287 -31 -68 c-48 -103 -57
-148 -56 -268 0 -91 5 -124 26 -190 65 -197 237 -358 437 -410 93 -24 271 -17
360 14 364 127 526 546 344 892 -66 125 -188 231 -332 286 -54 21 -90 27 -182
31 -128 5 -197 -8 -303 -55 l-58 -26 -164 163 -164 164 58 21 c89 33 142 68
208 139 105 112 153 239 153 408 l0 98 161 -2 162 -3 12 -40 c54 -183 219
-347 410 -408 99 -31 271 -31 370 0 203 65 367 236 419 439 18 71 21 219 5
296 -6 29 -29 91 -51 138 -32 67 -57 101 -117 161 -84 83 -139 118 -251 157
-64 22 -92 26 -190 26 -102 0 -124 -3 -200 -30 -186 -65 -326 -204 -390 -387
l-18 -52 -227 -3 -226 -2 -55 48 c-30 27 -79 61 -108 75 l-52 26 -13 68 c-17
92 -65 234 -105 310 l-33 61 202 202 203 203 53 -26 c270 -127 585 -57 763
170 154 196 179 466 64 686 -43 82 -173 212 -255 255 -244 128 -541 84 -733
-108 -128 -128 -184 -261 -184 -440 -1 -112 22 -213 67 -293 l21 -38 -194
-194 -194 -195 -26 24 c-114 108 -346 196 -515 196 l-65 0 2 291 3 291 61 22
c93 34 152 73 229 150 125 125 180 261 179 441 -1 180 -54 306 -183 435 -84
84 -175 138 -277 164 -77 20 -249 20 -322 0z m302 -298 c68 -33 133 -99 165
-166 35 -74 37 -200 4 -272 -30 -67 -105 -143 -172 -175 -79 -38 -191 -39
-272 -1 -214 99 -271 358 -118 533 95 108 266 143 393 81z m-1687 -688 c107
-40 194 -157 209 -280 5 -43 2 -72 -16 -129 -19 -63 -30 -81 -84 -135 -54 -54
-72 -65 -135 -84 -57 -18 -86 -21 -134 -16 -120 12 -225 86 -275 194 -38 81
-38 193 -1 272 82 175 255 246 436 178z m3336 6 c21 -7 58 -28 81 -45 208
-149 177 -468 -57 -575 -52 -24 -75 -29 -142 -29 -71 0 -89 4 -148 33 -115 57
-178 152 -185 281 -5 97 20 169 85 241 95 106 232 141 366 94z m-4010 -1687
c62 -31 124 -93 158 -159 17 -32 24 -66 27 -129 4 -78 2 -92 -23 -146 -79
-177 -284 -256 -450 -174 -237 117 -264 434 -48 582 66 46 116 59 204 56 58
-3 90 -10 132 -30z m4727 2 c70 -33 132 -95 167 -167 39 -81 39 -192 1 -274
-122 -263 -483 -269 -610 -10 -29 58 -33 76 -33 147 0 65 5 90 26 135 42 89
124 160 219 191 51 17 172 5 230 -22z m-4042 -1674 c168 -75 244 -275 168
-442 -100 -219 -392 -265 -555 -88 -66 71 -86 124 -86 225 0 73 4 93 28 142
83 169 275 239 445 163z m3348 1 c120 -55 196 -175 196 -306 0 -250 -261 -409
-489 -299 -57 28 -117 88 -150 151 -25 47 -28 63 -28 148 0 85 3 101 28 148
88 168 275 235 443 158z m-1679 -691 c70 -31 137 -96 170 -164 24 -49 28 -68
28 -146 0 -83 -2 -95 -34 -153 -61 -112 -155 -172 -281 -180 -96 -5 -168 20
-240 85 -147 132 -153 348 -14 487 100 101 242 128 371 71z"/>
</g>
</svg>
